<svg width="26" height="26" viewBox="0 0 26 26" fill="none" xmlns="http://www.w3.org/2000/svg">
<g clip-path="url(#clip0_7_74)">
<path d="M8.9375 1.21875C8.9375 0.543359 8.39414 0 7.71875 0C7.04336 0 6.5 0.543359 6.5 1.21875V3.25C4.70742 3.25 3.25 4.70742 3.25 6.5H1.21875C0.543359 6.5 0 7.04336 0 7.71875C0 8.39414 0.543359 8.9375 1.21875 8.9375H3.25V11.7812H1.21875C0.543359 11.7812 0 12.3246 0 13C0 13.6754 0.543359 14.2188 1.21875 14.2188H3.25V17.0625H1.21875C0.543359 17.0625 0 17.6059 0 18.2812C0 18.9566 0.543359 19.5 1.21875 19.5H3.25C3.25 21.2926 4.70742 22.75 6.5 22.75V24.7812C6.5 25.4566 7.04336 26 7.71875 26C8.39414 26 8.9375 25.4566 8.9375 24.7812V22.75H11.7812V24.7812C11.7812 25.4566 12.3246 26 13 26C13.6754 26 14.2188 25.4566 14.2188 24.7812V22.75H17.0625V24.7812C17.0625 25.4566 17.6059 26 18.2812 26C18.9566 26 19.5 25.4566 19.5 24.7812V22.75C21.2926 22.75 22.75 21.2926 22.75 19.5H24.7812C25.4566 19.5 26 18.9566 26 18.2812C26 17.6059 25.4566 17.0625 24.7812 17.0625H22.75V14.2188H24.7812C25.4566 14.2188 26 13.6754 26 13C26 12.3246 25.4566 11.7812 24.7812 11.7812H22.75V8.9375H24.7812C25.4566 8.9375 26 8.39414 26 7.71875C26 7.04336 25.4566 6.5 24.7812 6.5H22.75C22.75 4.70742 21.2926 3.25 19.5 3.25V1.21875C19.5 0.543359 18.9566 0 18.2812 0C17.6059 0 17.0625 0.543359 17.0625 1.21875V3.25H14.2188V1.21875C14.2188 0.543359 13.6754 0 13 0C12.3246 0 11.7812 0.543359 11.7812 1.21875V3.25H8.9375V1.21875ZM8.125 6.5H17.875C18.7738 6.5 19.5 7.22617 19.5 8.125V17.875C19.5 18.7738 18.7738 19.5 17.875 19.5H8.125C7.22617 19.5 6.5 18.7738 6.5 17.875V8.125C6.5 7.22617 7.22617 6.5 8.125 6.5ZM17.875 8.125H8.125V17.875H17.875V8.125Z" fill="white"/>
</g>
<defs>
<clipPath id="clip0_7_74">
<rect width="26" height="26" fill="white"/>
</clipPath>
</defs>
</svg>
